<mxfile host="65bd71144e">
    <diagram id="tNLImOH-0BHSWzMqkXt0" name="Page-1">
        <mxGraphModel dx="1148" dy="534" grid="1" gridSize="10" guides="1" tooltips="1" connect="1" arrows="1" fold="1" page="1" pageScale="1" pageWidth="827" pageHeight="1169" math="0" shadow="0">
            <root>
                <mxCell id="0"/>
                <mxCell id="1" parent="0"/>
                <mxCell id="4" style="edgeStyle=none;html=1;exitX=0.5;exitY=1;exitDx=0;exitDy=0;entryX=0.5;entryY=0;entryDx=0;entryDy=0;fontSize=20;fontColor=#000000;strokeWidth=3;" edge="1" parent="1" source="2" target="7">
                    <mxGeometry relative="1" as="geometry">
                        <mxPoint x="360" y="100" as="targetPoint"/>
                    </mxGeometry>
                </mxCell>
                <mxCell id="2" value="&lt;font color=&quot;#000000&quot; style=&quot;font-size: 20px&quot;&gt;Start&lt;/font&gt;" style="ellipse;whiteSpace=wrap;html=1;fillColor=#99FF99;fontColor=#ffffff;strokeColor=#2D7600;" vertex="1" parent="1">
                    <mxGeometry x="314" y="20" width="100" height="40" as="geometry"/>
                </mxCell>
                <mxCell id="10" value="" style="edgeStyle=none;html=1;fontSize=20;fontColor=#000000;strokeWidth=3;" edge="1" parent="1" source="7" target="9">
                    <mxGeometry relative="1" as="geometry"/>
                </mxCell>
                <mxCell id="7" value="int size = someData;&lt;br&gt;string[size] inputData;&lt;br&gt;index = 0;" style="whiteSpace=wrap;html=1;fontSize=20;fillColor=#99FF99;fontColor=#000000;" vertex="1" parent="1">
                    <mxGeometry x="247.5" y="100" width="233" height="80" as="geometry"/>
                </mxCell>
                <mxCell id="12" value="" style="edgeStyle=none;html=1;fontSize=20;fontColor=#000000;strokeWidth=3;" edge="1" parent="1" source="9" target="11">
                    <mxGeometry relative="1" as="geometry"/>
                </mxCell>
                <mxCell id="24" style="edgeStyle=none;html=1;entryX=-0.025;entryY=0.35;entryDx=0;entryDy=0;entryPerimeter=0;fontSize=24;fontColor=#00FF00;strokeWidth=3;" edge="1" parent="1" source="9" target="23">
                    <mxGeometry relative="1" as="geometry"/>
                </mxCell>
                <mxCell id="9" value="size = 0?" style="rhombus;whiteSpace=wrap;html=1;fontSize=20;fillColor=#99FF99;fontColor=#000000;" vertex="1" parent="1">
                    <mxGeometry x="310" y="210" width="114" height="120" as="geometry"/>
                </mxCell>
                <mxCell id="16" value="" style="edgeStyle=none;html=1;fontSize=24;fontColor=#FF0000;strokeWidth=3;" edge="1" parent="1" source="11" target="15">
                    <mxGeometry relative="1" as="geometry"/>
                </mxCell>
                <mxCell id="11" value="inputData[index]=someData;" style="whiteSpace=wrap;html=1;fontSize=20;fillColor=#99FF99;fontColor=#000000;" vertex="1" parent="1">
                    <mxGeometry x="220" y="390" width="300" height="50" as="geometry"/>
                </mxCell>
                <mxCell id="13" value="&lt;font color=&quot;#ff0000&quot;&gt;Нет&lt;/font&gt;" style="text;html=1;strokeColor=none;fillColor=none;align=center;verticalAlign=middle;whiteSpace=wrap;rounded=0;fontSize=20;fontColor=#000000;" vertex="1" parent="1">
                    <mxGeometry x="385" y="335" width="60" height="30" as="geometry"/>
                </mxCell>
                <mxCell id="14" value="&lt;h1 style=&quot;font-size: 24px&quot;&gt;&lt;font style=&quot;font-size: 24px&quot;&gt;someData -&amp;nbsp;&lt;/font&gt;пользовательский ввод&lt;/h1&gt;" style="text;html=1;strokeColor=none;fillColor=none;spacing=5;spacingTop=-20;whiteSpace=wrap;overflow=hidden;rounded=0;fontSize=20;fontColor=#FF0000;" vertex="1" parent="1">
                    <mxGeometry x="10" y="40" width="250" height="100" as="geometry"/>
                </mxCell>
                <mxCell id="17" style="edgeStyle=none;html=1;entryX=0;entryY=0.5;entryDx=0;entryDy=0;fontSize=24;fontColor=#FF0000;strokeWidth=3;exitX=0;exitY=0.5;exitDx=0;exitDy=0;" edge="1" parent="1" source="15" target="9">
                    <mxGeometry relative="1" as="geometry">
                        <Array as="points">
                            <mxPoint x="170" y="545"/>
                            <mxPoint x="170" y="270"/>
                        </Array>
                    </mxGeometry>
                </mxCell>
                <mxCell id="15" value="index ++;&lt;br&gt;size --;" style="whiteSpace=wrap;html=1;fontSize=20;fillColor=#99FF99;fontColor=#000000;" vertex="1" parent="1">
                    <mxGeometry x="310" y="515" width="120" height="60" as="geometry"/>
                </mxCell>
                <mxCell id="19" value="&lt;font color=&quot;#00ff00&quot;&gt;Да&lt;/font&gt;" style="text;html=1;align=center;verticalAlign=middle;whiteSpace=wrap;rounded=0;fontSize=20;" vertex="1" parent="1">
                    <mxGeometry x="445" y="230" width="60" height="30" as="geometry"/>
                </mxCell>
                <mxCell id="26" value="" style="edgeStyle=none;html=1;fontSize=24;fontColor=#000000;strokeWidth=3;entryX=-0.033;entryY=0.383;entryDx=0;entryDy=0;entryPerimeter=0;" edge="1" parent="1" source="23" target="25">
                    <mxGeometry relative="1" as="geometry">
                        <Array as="points">
                            <mxPoint x="605" y="131"/>
                        </Array>
                    </mxGeometry>
                </mxCell>
                <mxCell id="23" value="&lt;font color=&quot;#000000&quot;&gt;Print(inputData):&lt;/font&gt;" style="shape=document;whiteSpace=wrap;html=1;boundedLbl=1;fontSize=24;fontColor=#00FF00;fillColor=#99FF99;" vertex="1" parent="1">
                    <mxGeometry x="510" y="240" width="190" height="80" as="geometry"/>
                </mxCell>
                <mxCell id="28" style="edgeStyle=none;html=1;entryX=0.5;entryY=0;entryDx=0;entryDy=0;fontSize=24;fontColor=#000000;strokeWidth=3;exitX=0.75;exitY=1;exitDx=0;exitDy=0;" edge="1" parent="1" source="25" target="27">
                    <mxGeometry relative="1" as="geometry"/>
                </mxCell>
                <mxCell id="25" value="&lt;span style=&quot;color: rgb(0 , 0 , 0) ; font-size: 20px&quot;&gt;string[] SelectedData;&lt;/span&gt;&lt;br style=&quot;color: rgb(0 , 0 , 0) ; font-size: 20px&quot;&gt;&lt;span style=&quot;color: rgb(0 , 0 , 0) ; font-size: 20px&quot;&gt;index = 0;&lt;/span&gt;" style="whiteSpace=wrap;html=1;fontSize=24;fillColor=#99FF99;fontColor=#00FF00;" vertex="1" parent="1">
                    <mxGeometry x="775.75" y="110" width="214.25" height="60" as="geometry"/>
                </mxCell>
                <mxCell id="30" value="" style="edgeStyle=none;html=1;fontSize=24;fontColor=#000000;strokeWidth=3;" edge="1" parent="1" source="27" target="29">
                    <mxGeometry relative="1" as="geometry"/>
                </mxCell>
                <mxCell id="41" style="edgeStyle=none;html=1;entryX=0;entryY=0.5;entryDx=0;entryDy=0;fontSize=24;fontColor=#000000;strokeWidth=3;" edge="1" parent="1" source="27" target="40">
                    <mxGeometry relative="1" as="geometry"/>
                </mxCell>
                <mxCell id="27" value="index &amp;lt; inputData.Lenght" style="rhombus;whiteSpace=wrap;html=1;fontSize=20;fillColor=#99FF99;fontColor=#000000;" vertex="1" parent="1">
                    <mxGeometry x="790" y="220" width="283" height="120" as="geometry"/>
                </mxCell>
                <mxCell id="33" value="" style="edgeStyle=none;html=1;fontSize=24;fontColor=#000000;strokeWidth=3;" edge="1" parent="1" source="29" target="32">
                    <mxGeometry relative="1" as="geometry"/>
                </mxCell>
                <mxCell id="36" style="edgeStyle=none;html=1;entryX=1;entryY=0.5;entryDx=0;entryDy=0;fontSize=24;fontColor=#000000;strokeWidth=3;exitX=1;exitY=0.5;exitDx=0;exitDy=0;" edge="1" parent="1" source="29" target="34">
                    <mxGeometry relative="1" as="geometry">
                        <Array as="points">
                            <mxPoint x="1140" y="435"/>
                            <mxPoint x="1140" y="630"/>
                        </Array>
                    </mxGeometry>
                </mxCell>
                <mxCell id="29" value="&lt;span&gt;inpitData[index].Lenght &amp;lt;= 3&lt;/span&gt;" style="rhombus;whiteSpace=wrap;html=1;fontSize=20;fillColor=#99FF99;fontColor=#000000;" vertex="1" parent="1">
                    <mxGeometry x="775.75" y="380" width="311.5" height="110" as="geometry"/>
                </mxCell>
                <mxCell id="31" value="&lt;font color=&quot;#00ff00&quot;&gt;Да&lt;/font&gt;" style="text;html=1;align=center;verticalAlign=middle;whiteSpace=wrap;rounded=0;fontSize=20;" vertex="1" parent="1">
                    <mxGeometry x="950" y="340" width="60" height="30" as="geometry"/>
                </mxCell>
                <mxCell id="35" value="" style="edgeStyle=none;html=1;fontSize=24;fontColor=#000000;strokeWidth=3;" edge="1" parent="1" source="32" target="34">
                    <mxGeometry relative="1" as="geometry"/>
                </mxCell>
                <mxCell id="32" value="&lt;span&gt;SelectedData.Add(&lt;/span&gt;inpitData[index])" style="whiteSpace=wrap;html=1;fontSize=20;fillColor=#99FF99;fontColor=#000000;" vertex="1" parent="1">
                    <mxGeometry x="766.13" y="525" width="330.75" height="45" as="geometry"/>
                </mxCell>
                <mxCell id="39" style="edgeStyle=none;html=1;entryX=0;entryY=0.5;entryDx=0;entryDy=0;fontSize=24;fontColor=#000000;strokeWidth=3;" edge="1" parent="1" source="34" target="27">
                    <mxGeometry relative="1" as="geometry">
                        <Array as="points">
                            <mxPoint x="730" y="630"/>
                            <mxPoint x="730" y="280"/>
                        </Array>
                    </mxGeometry>
                </mxCell>
                <mxCell id="34" value="index++" style="whiteSpace=wrap;html=1;fontSize=20;fillColor=#99FF99;fontColor=#000000;" vertex="1" parent="1">
                    <mxGeometry x="869.995" y="600" width="120" height="60" as="geometry"/>
                </mxCell>
                <mxCell id="37" value="&lt;font color=&quot;#00ff00&quot;&gt;Да&lt;/font&gt;" style="text;html=1;align=center;verticalAlign=middle;whiteSpace=wrap;rounded=0;fontSize=20;" vertex="1" parent="1">
                    <mxGeometry x="950" y="485" width="60" height="30" as="geometry"/>
                </mxCell>
                <mxCell id="38" value="&lt;font color=&quot;#ff0000&quot;&gt;Нет&lt;/font&gt;" style="text;html=1;strokeColor=none;fillColor=none;align=center;verticalAlign=middle;whiteSpace=wrap;rounded=0;fontSize=20;fontColor=#000000;" vertex="1" parent="1">
                    <mxGeometry x="1070" y="400" width="60" height="30" as="geometry"/>
                </mxCell>
                <mxCell id="44" style="edgeStyle=none;html=1;entryX=0.45;entryY=-0.05;entryDx=0;entryDy=0;entryPerimeter=0;fontSize=24;fontColor=#000000;strokeWidth=3;" edge="1" parent="1" source="40" target="43">
                    <mxGeometry relative="1" as="geometry"/>
                </mxCell>
                <mxCell id="40" value="&lt;font color=&quot;#000000&quot;&gt;Print(&lt;/font&gt;&lt;span style=&quot;color: rgb(0 , 0 , 0) ; font-size: 20px&quot;&gt;SelectedData&lt;/span&gt;&lt;font color=&quot;#000000&quot;&gt;):&lt;/font&gt;" style="shape=document;whiteSpace=wrap;html=1;boundedLbl=1;fontSize=24;fontColor=#00FF00;fillColor=#99FF99;" vertex="1" parent="1">
                    <mxGeometry x="1160" y="240" width="190" height="80" as="geometry"/>
                </mxCell>
                <mxCell id="42" value="&lt;font color=&quot;#ff0000&quot;&gt;Нет&lt;/font&gt;" style="text;html=1;strokeColor=none;fillColor=none;align=center;verticalAlign=middle;whiteSpace=wrap;rounded=0;fontSize=20;fontColor=#000000;" vertex="1" parent="1">
                    <mxGeometry x="1080" y="240" width="60" height="30" as="geometry"/>
                </mxCell>
                <mxCell id="43" value="End" style="ellipse;whiteSpace=wrap;html=1;fontSize=24;fontColor=#000000;fillColor=#99FF99;" vertex="1" parent="1">
                    <mxGeometry x="1200" y="390" width="120" height="80" as="geometry"/>
                </mxCell>
            </root>
        </mxGraphModel>
    </diagram>
</mxfile>